<?xml version="1.0" encoding="UTF-8"?>
<svg version="1.1" xmlns="http://www.w3.org/2000/svg" width="500" height="500">
<path d="M0 0 C0.63164062 0.350625 1.26328125 0.70125 1.9140625 1.0625 C6.48169692 3.96003021 9.40246252 7.83457557 12.51953125 12.20703125 C13.00808594 12.79871094 13.49664062 13.39039063 14 14 C14.66 14 15.32 14 16 14 C16.41771804 10.66799815 16.41771804 10.66799815 16 7 C13.60140956 4.66369252 13.60140956 4.66369252 11 3 C11 2.34 11 1.68 11 1 C15.0614603 0.32689407 19.12432096 -0.33735482 23.1875 -1 C24.33798828 -1.19078125 25.48847656 -1.3815625 26.67382812 -1.578125 C28.34155273 -1.84882813 28.34155273 -1.84882813 30.04296875 -2.125 C31.57473755 -2.37636719 31.57473755 -2.37636719 33.13745117 -2.6328125 C40.19319076 -3.53787283 40.19319076 -3.53787283 44 -1 C45.97562995 -1.43494082 45.97562995 -1.43494082 48.125 -2.375 C55.9202864 -4.93139539 65.84642928 -5.63675637 73.73046875 -3.1328125 C75.8125 -2.0625 75.8125 -2.0625 79 0 C81.51975845 0.97819891 82.5982167 1.1365632 85.18359375 0.2578125 C85.92738281 -0.11601562 86.67117187 -0.48984375 87.4375 -0.875 C95.57796979 -4.92399889 106.98011067 -5.80169737 115.75390625 -3.17578125 C118.55418784 -1.7885331 120.79089551 -0.20910449 123 2 C124.15822266 1.55720703 124.15822266 1.55720703 125.33984375 1.10546875 C130.03647342 -0.31304373 134.7120928 -1.00420183 139.5625 -1.6875 C140.49513672 -1.82994141 141.42777344 -1.97238281 142.38867188 -2.11914062 C143.29294922 -2.24869141 144.19722656 -2.37824219 145.12890625 -2.51171875 C145.94431885 -2.62990967 146.75973145 -2.74810059 147.59985352 -2.86987305 C151.03926535 -3.05634507 153.91884197 -2.54057902 157 -1 C158.37089571 -1.42896737 159.7223957 -1.92030709 161.0625 -2.4375 C169.29998651 -5.02745209 180.70163213 -5.98735047 188.75 -2.4375 C193.40203615 0.48962387 196.28671705 4.86015115 198 10 C198.11706233 12.00841665 198.17675967 14.02035989 198.20532227 16.03198242 C198.22526749 17.27304245 198.24521271 18.51410248 198.26576233 19.79277039 C198.28274527 21.1470019 198.29962413 22.50123473 198.31640625 23.85546875 C198.33698228 25.24124259 198.35797892 26.62701025 198.37937927 28.01277161 C198.43453301 31.65740953 198.48397174 35.30210346 198.53222656 38.94683838 C198.58249056 42.6670835 198.63815104 46.38724743 198.69335938 50.10742188 C198.80085899 57.40487913 198.90232207 64.70240397 199 72 C199.66 72 200.32 72 201 72 C200.67 71.34 200.34 70.68 200 70 C199.8800592 68.09091814 199.82268712 66.17777752 199.79467773 64.26513672 C199.77473251 63.06404266 199.75478729 61.86294861 199.73423767 60.62545776 C199.70916893 58.67230148 199.70916893 58.67230148 199.68359375 56.6796875 C199.66302375 55.33732462 199.64202727 53.99496821 199.62062073 52.65261841 C199.56540469 49.11811562 199.51599342 45.58355443 199.46777344 42.0489502 C199.41755496 38.44273678 199.36187071 34.83660828 199.30664062 31.23046875 C199.19906483 24.15371951 199.09761858 17.07689416 199 10 C199.99 11.485 199.99 11.485 201 13 C200.72686864 8.99407334 200.52323517 7.459426 197.4375 4.75 C196.2309375 3.88375 196.2309375 3.88375 195 3 C195 2.34 195 1.68 195 1 C199.22693311 0.29826917 203.4567992 -0.38388574 207.6875 -1.0625 C208.88568359 -1.26166016 210.08386719 -1.46082031 211.31835938 -1.66601562 C212.47529297 -1.84970703 213.63222656 -2.03339844 214.82421875 -2.22265625 C215.88729248 -2.39547119 216.95036621 -2.56828613 218.0456543 -2.74633789 C220.9807338 -2.99834579 223.17483616 -2.7932008 226 -2 C227.59865963 -0.40134037 227.16483531 1.30456032 227.20532227 3.51977539 C227.22526749 4.48069595 227.24521271 5.44161652 227.26576233 6.43165588 C227.29083107 7.99882607 227.29083107 7.99882607 227.31640625 9.59765625 C227.33718735 10.66165146 227.35796844 11.72564667 227.37937927 12.82188416 C227.44499254 16.2353544 227.50381423 19.64890429 227.5625 23.0625 C227.60567403 25.37045109 227.64928794 27.678394 227.69335938 29.98632812 C227.80068584 35.65746682 227.90242992 41.32868552 228 47 C228.40471024 46.51449173 228.80942047 46.02898346 229.22639465 45.52876282 C229.76116928 44.89447861 230.29594391 44.2601944 230.84692383 43.60668945 C231.37538406 42.97680618 231.9038443 42.34692291 232.44831848 41.69795227 C234.32344946 39.64606026 236.20115456 38.41548562 238.6875 37.1875 C241.27088226 35.88019257 243.57766917 34.61488722 246 33 C245.40832031 32.90203125 244.81664062 32.8040625 244.20703125 32.703125 C239.18578296 31.75293772 235.62510873 30.84481229 232 27 C229.48625048 23.11511437 229.63188811 19.08563137 230.22265625 14.625 C232.07062611 8.38461936 236.63550228 4.43742135 242.05859375 1.140625 C252.77324617 -4.36751945 264.32302608 -5.95178875 276.1953125 -3.28125 C282.37014714 -0.93972249 287.24199939 2.21144731 290.8125 7.875 C293.43114044 14.76615906 293.11037199 21.77315321 293.02734375 29.04296875 C293.01470662 31.18945157 293.002345 33.33593602 292.99023438 35.48242188 C292.96535066 38.84665084 292.93727 42.21079377 292.90405273 45.57495117 C292.87390327 48.83512937 292.85610081 52.09519592 292.83984375 55.35546875 C292.82638412 56.36280563 292.8129245 57.37014252 292.79905701 58.40800476 C292.79567825 59.34610489 292.7922995 60.28420502 292.78881836 61.25073242 C292.77763222 62.48481087 292.77763222 62.48481087 292.76622009 63.74382019 C293.02830791 66.27319601 293.65100125 67.85375449 295 70 C297.0335948 71.26804566 297.0335948 71.26804566 299 72 C298.67 72.99 298.34 73.98 298 75 C294.50126246 75.50910422 291.00084399 76.005606 287.5 76.5 C286.02660156 76.71462891 286.02660156 76.71462891 284.5234375 76.93359375 C278.95210838 77.71357983 273.62506015 78.160716 268 78 C267.34 76.35 266.68 74.7 266 73 C265.34 73.66 264.68 74.32 264 75 C256.43621968 78.8525797 246.68887184 79.57621608 238.546875 77.3203125 C236.625 76.5 236.625 76.5 234 75 C233.67 75.99 233.34 76.98 233 78 C211.22 78 189.44 78 167 78 C167 77.01 167 76.02 167 75 C167.639375 74.896875 168.27875 74.79375 168.9375 74.6875 C169.618125 74.460625 170.29875 74.23375 171 74 C171.99534088 71.01397737 172.13561385 69.0086762 172.15771484 65.8894043 C172.16797699 64.84789719 172.17823914 63.80639008 172.18881226 62.73332214 C172.19976425 61.04581596 172.19976425 61.04581596 172.2109375 59.32421875 C172.23900648 56.94595666 172.26767095 54.56770154 172.296875 52.18945312 C172.33813578 48.43693234 172.37502077 44.68454159 172.40136719 40.93188477 C172.42898784 37.31238887 172.47486137 33.69348597 172.5234375 30.07421875 C172.52669037 28.95528732 172.52994324 27.8363559 172.53329468 26.68351746 C172.64555191 19.5620073 173.44255464 14.99586456 178.1875 9.4375 C180.25195119 6.66116909 180.38562929 5.37425632 180 2 C176.99804628 0.27284854 174.83018873 -0.27250937 171.375 -0.25 C170.21097656 -0.25773438 170.21097656 -0.25773438 169.0234375 -0.265625 C166.20796829 -0.01827112 163.57713095 0.45119844 160.81103516 1.01660156 C159.91019196 1.19982971 159.00934875 1.38305786 158.08120728 1.57183838 C157.39440887 1.71313171 156.70761047 1.85442505 156 2 C156.06117318 10.9448846 156.13825135 19.88944869 156.23571491 28.83401203 C156.28046845 32.98722207 156.31971332 37.14033288 156.34643555 41.29370117 C156.3724192 45.30094276 156.41278584 49.30780352 156.46318626 53.3148098 C156.47988857 54.84458878 156.49138188 56.37443369 156.49761391 57.90429115 C156.50721892 60.04508133 156.53523221 62.18488987 156.56762695 64.32543945 C156.57873001 65.54455521 156.58983307 66.76367096 156.60127258 68.01972961 C156.75714555 70.9716778 156.75714555 70.9716778 158.33952332 72.85466003 C160.11490577 74.19293971 160.11490577 74.19293971 163 75 C162.67 75.99 162.34 76.98 162 78 C140.55 78 119.1 78 97 78 C96.67 77.01 96.34 76.02 96 75 C96.639375 74.71125 97.27875 74.4225 97.9375 74.125 C100.15206079 73.17176549 100.15206079 73.17176549 101 71 C101.10854591 69.3981383 101.15629903 67.79196554 101.17358398 66.18652344 C101.19381874 64.68421173 101.19381874 64.68421173 101.21446228 63.15155029 C101.22490067 62.06513245 101.23533905 60.9787146 101.24609375 59.859375 C101.27903939 57.5690067 101.31225091 55.27864221 101.34570312 52.98828125 C101.39307761 49.3696563 101.43748863 45.75104601 101.47680664 42.13232422 C101.51658846 38.64534048 101.56812784 35.15867993 101.62109375 31.671875 C101.6295079 30.59355408 101.63792206 29.51523315 101.64659119 28.40423584 C101.78864616 19.74752183 103.19436993 14.53209315 108.85546875 7.9296875 C110.19321984 6.07001729 110.19321984 6.07001729 109.92578125 3.8828125 C108.6889389 1.36737784 107.62385157 0.91304501 105 0 C98.17643523 -1.04603667 92.54261408 0.55074878 86.25 3.125 C84 4 84 4 82 4 C82.48662109 4.87760986 82.97324219 5.75521973 83.47460938 6.65942383 C85.89500052 12.34704073 85.42103609 18.37141999 85.40625 24.44921875 C85.42280483 26.42026708 85.43937591 28.39131543 85.45691681 30.36235523 C85.48901407 34.50256531 85.49481941 38.64289315 85.50531006 42.78320312 C85.51499371 46.2050257 85.53041288 49.62658851 85.56091309 53.04829407 C85.58246906 55.60907773 85.5907945 58.17001385 85.58459473 60.73088074 C85.59470581 61.88920914 85.60481689 63.04753754 85.61523438 64.2409668 C85.61728882 65.25909958 85.61934326 66.27723236 85.62145996 67.32621765 C86.05983788 70.42265932 86.82813558 71.77707437 89 74 C89.99 74.33 90.98 74.66 92 75 C91.67 75.99 91.34 76.98 91 78 C86.39184965 78.02478935 81.78373847 78.0429023 77.17553711 78.05493164 C75.60912398 78.05994856 74.0427155 78.06676362 72.47631836 78.07543945 C70.21987761 78.08762094 67.96349898 78.09325481 65.70703125 78.09765625 C64.66298882 78.10539818 64.66298882 78.10539818 63.59785461 78.11329651 C59.93529848 78.11371546 56.56131142 77.87148095 53 77 C53.42542084 76.63467667 53.85084167 76.26935333 54.28915405 75.89295959 C57.96255605 72.28674537 59.42259832 69.61738294 59.70947266 64.43530273 C59.72332864 62.26805784 59.70652677 60.10046689 59.6640625 57.93359375 C59.670392 56.20521019 59.670392 56.20521019 59.67684937 54.44190979 C59.68769143 50.77311242 59.65967104 47.10612896 59.625 43.4375 C59.60093582 39.7655472 59.58577207 36.09440589 59.59457397 32.42237854 C59.59914221 30.14184377 59.58450881 27.86116841 59.54824829 25.58091736 C59.55035863 19.36594269 59.85588572 15.7377254 64 11 C66.54752082 8.03301856 66.54752082 8.03301856 67.1875 4.25 C67.125625 3.5075 67.06375 2.765 67 2 C63.99804628 0.27284854 61.83018873 -0.27250937 58.375 -0.25 C57.21097656 -0.25773438 57.21097656 -0.25773438 56.0234375 -0.265625 C53.20796829 -0.01827112 50.57713095 0.45119844 47.81103516 1.01660156 C46.91019196 1.19982971 46.00934875 1.38305786 45.08120728 1.57183838 C44.39440887 1.71313171 43.70761047 1.85442505 43 2 C43.08432913 10.94482079 43.17918325 19.88944964 43.28752708 28.83401203 C43.3375021 32.98720768 43.38383194 37.14037773 43.421875 41.29370117 C43.45871273 45.30086927 43.50506836 49.30782394 43.55806351 53.3148098 C43.57661555 54.84459888 43.59172053 56.37443373 43.60334396 57.90429115 C43.62019284 60.0448969 43.6492236 62.18501299 43.68115234 64.32543945 C43.69447601 65.54455521 43.70779968 66.76367096 43.7215271 68.01972961 C43.77917995 71.18322959 43.77917995 71.18322959 46 74 C47.485 74.495 47.485 74.495 49 75 C48.505 76.485 48.505 76.485 48 78 C36.12 78 24.24 78 12 78 C11.67 77.01 11.34 76.02 11 75 C11.639375 74.71125 12.27875 74.4225 12.9375 74.125 C15.15206079 73.17176549 15.15206079 73.17176549 16 71 C16.07033769 69.12620395 16.0843022 67.24998898 16.0625 65.375 C16.05347656 64.37210937 16.04445313 63.36921875 16.03515625 62.3359375 C16.02355469 61.56507813 16.01195312 60.79421875 16 60 C15.34 59.67 14.68 59.34 14 59 C13.6596875 59.49628906 13.319375 59.99257813 12.96875 60.50390625 C7.02170252 68.83926268 0.29160021 75.71147311 -10 78 C-20.57978611 79.04292607 -29.79808439 78.54498592 -38.6171875 72.08203125 C-44.50707568 67.14466208 -48.64880176 61.90147757 -52 55 C-52.33902344 54.34 -52.67804688 53.68 -53.02734375 53 C-57.36312802 42.76994679 -56.24500383 28.6350097 -52.25390625 18.5390625 C-47.5242683 8.96191401 -39.15533417 0.19702785 -28.93359375 -3.375 C-19.04861063 -5.48098842 -8.90458348 -5.0315862 0 0 Z M-24.90234375 1.96875 C-34.07235329 18.93816268 -31.71452405 45.75395575 -27.94921875 63.86328125 C-26.62186988 68.24954111 -24.95938601 73.36040933 -21 76 C-18.08617271 76.75060849 -18.08617271 76.75060849 -15 76 C-7.57962661 69.61502754 -6.69594871 59.27845058 -6 50 C-4.35728467 23.45590642 -4.35728467 23.45590642 -13.3125 -0.875 C-17.96070117 -3.97380078 -21.79821195 -2.26324962 -24.90234375 1.96875 Z M250 1 C248.76066107 2.84233983 248.76066107 2.84233983 249 5 C250.20396061 7.315249 250.20396061 7.315249 251.9375 9.625 C254.83774043 14.18444775 255.63475814 17.41723331 255.50390625 22.7734375 C254.90046928 25.43978692 253.76261302 26.94126799 252 29 C252.33 29.66 252.66 30.32 253 31 C264.67322888 28.91549484 277.91188128 24.91331313 287 17 C289.27891715 14.2019983 289.27891715 14.2019983 288.9375 11.125 C287.39026449 5.96754829 283.91364321 3.42605981 279.4375 0.75 C274.24899342 -1.89142153 269.90679263 -2.20756482 264.125 -2.25 C263.43019531 -2.270625 262.73539062 -2.29125 262.01953125 -2.3125 C257.27237544 -2.34826012 253.9458487 -1.67883306 250 1 Z M124 3 C124 3.66 124 4.32 124 5 C124.99 4.67 125.98 4.34 127 4 C126.01 3.67 125.02 3.34 124 3 Z M127 5 C127.350625 6.2375 127.70125 7.475 128.0625 8.75 C129.12828962 12.51161044 129.12828962 12.51161044 128.52833557 14.79559326 C127.90436902 17.39900699 127.88021856 19.73354252 127.88647461 22.41113281 C127.88655014 23.49195129 127.88662567 24.57276978 127.88670349 25.68634033 C127.89186478 26.84687927 127.89702606 28.00741821 127.90234375 29.203125 C127.9037587 30.39605164 127.90517365 31.58897827 127.90663147 32.8180542 C127.91222962 36.62872829 127.92478181 40.43934366 127.9375 44.25 C127.94251524 46.83333248 127.9470781 49.41666589 127.95117188 52 C127.96219845 58.33335337 127.97893476 64.66667249 128 71 C128.66 71.33 129.32 71.66 130 72 C131.34152004 69.31695992 131.13453265 67.24107794 131.14526367 64.23681641 C131.15164352 63.02861237 131.15802338 61.82040833 131.16459656 60.57559204 C131.16570938 59.26416229 131.1668222 57.95273254 131.16796875 56.6015625 C131.17118143 55.24636805 131.17454552 53.89117394 131.17805481 52.53598022 C131.18404735 49.69292395 131.18589462 46.84989808 131.18530273 44.00683594 C131.18520119 40.36618951 131.19884462 36.72573847 131.21607494 33.08513832 C131.22720235 30.28499458 131.2292217 27.48489793 131.22869301 24.68473434 C131.23044545 22.69057522 131.24128308 20.6964308 131.25224304 18.70230103 C131.24916641 17.48779266 131.24608978 16.2732843 131.24291992 15.02197266 C131.24434494 13.95322906 131.24576996 12.88448547 131.24723816 11.78335571 C131.00065262 9.00734711 130.43239734 7.36153254 129 5 C128.34 5 127.68 5 127 5 Z M126 7 C126.33 9.64 126.66 12.28 127 15 C127.33 15 127.66 15 128 15 C128.16681109 12.08347826 128.16681109 12.08347826 128 9 C127.34 8.34 126.68 7.68 126 7 Z M255.36328125 36.5703125 C251.03749139 41.94832152 249.66945238 48.68938917 250.19140625 55.49609375 C251.1052779 60.37830895 252.72758323 64.18218044 256 68 C260.50555557 70.97174942 261.49436511 71.10112698 267 70 C267 56.47 267 42.94 267 29 C263.14029055 29 258.01200855 34.02905147 255.36328125 36.5703125 Z M227 67 C227.49831724 70.68754757 228.10067643 72.60490662 231 75 C231.99 74.67 232.98 74.34 234 74 C233.38125 73.773125 232.7625 73.54625 232.125 73.3125 C229.38589791 71.62070165 228.94975528 70.00755839 228 67 C227.67 67 227.34 67 227 67 Z " fill="#202020" transform="translate(129,205)"/>
<path d="M0 0 C4.07036261 2.63376404 6.63645666 5.22759831 8 10 C7.01 10 6.02 10 5 10 C4.62875 9.278125 4.2575 8.55625 3.875 7.8125 C0.91446898 3.37170347 -3.80090763 1.11515202 -8.79296875 -0.625 C-12.1448958 -1.19453097 -15.48510513 -1.22512004 -18.875 -1.25 C-19.56980469 -1.270625 -20.26460938 -1.29125 -20.98046875 -1.3125 C-25.75285607 -1.34845019 -28.91395996 -0.43369156 -33 2 C-32.65878308 5.63964719 -31.53598885 7.74402378 -29.4375 10.625 C-26.29099392 15.41316143 -25.91753991 20.41631004 -27 26 C-27.98606914 27.01373944 -28.985267 28.01495333 -30 29 C-30 30.32 -30 31.64 -30 33 C-30.99 33 -31.98 33 -33 33 C-33.33 33.66 -33.66 34.32 -34 35 C-36.6852464 36.37891032 -38.29776859 37.11387536 -41.3125 36.625 C-41.869375 36.41875 -42.42625 36.2125 -43 36 C-41.02 35.01 -39.04 34.02 -37 33 C-37.59167969 32.90203125 -38.18335938 32.8040625 -38.79296875 32.703125 C-43.81421704 31.75293772 -47.37489127 30.84481229 -51 27 C-53.51374952 23.11511437 -53.36811189 19.08563137 -52.77734375 14.625 C-50.92937389 8.38461936 -46.36449772 4.43742135 -40.94140625 1.140625 C-28.6671345 -5.16928214 -12.38150869 -7.50689897 0 0 Z " fill="#1E1E1D" transform="translate(412,205)"/>
<path d="M0 0 C3.52685678 3.52685678 5.15294356 6.31214801 5.3125 11.25 C5.26032408 15.87874943 4.10512601 18.46360649 1 22 C-3.44238629 24.74104686 -7.93252818 24.75132863 -13 24 C-16.44236209 22.55280288 -18.3986065 20.38088207 -19.91015625 16.91015625 C-21.08582814 12.79178467 -21.10351333 10.37143019 -19.9375 6.1875 C-17.63706937 2.40292057 -15.39348246 -0.18392698 -11.12109375 -1.640625 C-7.24321847 -2.29764991 -3.64163008 -1.37899962 0 0 Z " fill="#1F1F1F" transform="translate(351,170)"/>
<path d="M0 0 C-0.66 0.33 -1.32 0.66 -2 1 C-2 1.66 -2 2.32 -2 3 C-2.99 3.66 -3.98 4.32 -5 5 C-2.525 5.495 -2.525 5.495 0 6 C0 6.66 0 7.32 0 8 C-1.9375 8.5625 -1.9375 8.5625 -4 9 C-4.495 8.505 -4.495 8.505 -5 8 C-5 10.64 -5 13.28 -5 16 C-5.33 16 -5.66 16 -6 16 C-6.25394531 15.09636719 -6.50789063 14.19273437 -6.76953125 13.26171875 C-7.11371094 12.08222656 -7.45789063 10.90273437 -7.8125 9.6875 C-8.14894531 8.51574219 -8.48539063 7.34398437 -8.83203125 6.13671875 C-9.9178992 3.22049144 -10.51240577 1.79031403 -13 0 C-15.95720628 -0.66680368 -15.95720628 -0.66680368 -19 0 C-21.3091666 2.30302869 -21.3091666 2.30302869 -23 5 C-23.66 5.66 -24.32 6.32 -25 7 C-25.99 6.67 -26.98 6.34 -28 6 C-28 4.68 -28 3.36 -28 2 C-30.97 3.32 -33.94 4.64 -37 6 C-37 7.32 -37 8.64 -37 10 C-37.99 10.33 -38.98 10.66 -40 11 C-40.99 10.34 -41.98 9.68 -43 9 C-31.27820681 -2.66516617 -15.6323133 -7.81615665 0 0 Z " fill="#1A1918" transform="translate(127,204)"/>
<path d="M0 0 C1.08559204 0.00483398 1.08559204 0.00483398 2.19311523 0.00976562 C7.88284026 0.15880212 11.58631002 1.26222171 16.25 4.4375 C13.76588385 5.67955807 11.99800896 5.57842354 9.25 5.4375 C8.92 5.1075 8.59 4.7775 8.25 4.4375 C7.26 4.9325 7.26 4.9325 6.25 5.4375 C6.270625 6.55125 6.29125 7.665 6.3125 8.8125 C6.25 12.4375 6.25 12.4375 5.25 14.4375 C4.59 14.1075 3.93 13.7775 3.25 13.4375 C3.58 11.1275 3.91 8.8175 4.25 6.4375 C1.24804628 4.71034854 -0.91981127 4.16499063 -4.375 4.1875 C-5.53902344 4.17976562 -5.53902344 4.17976562 -6.7265625 4.171875 C-11.1160012 4.55751044 -15.42922207 5.57334441 -19.75 6.4375 C-19.75 28.8775 -19.75 51.3175 -19.75 74.4375 C-20.08 74.4375 -20.41 74.4375 -20.75 74.4375 C-20.75 51.0075 -20.75 27.5775 -20.75 3.4375 C-6.6222597 -0.09443508 -6.6222597 -0.09443508 0 0 Z " fill="#131211" transform="translate(304.75,200.5625)"/>
<path d="M0 0 C0.66 0.99 1.32 1.98 2 3 C0.88625 2.505 0.88625 2.505 -0.25 2 C-3.13883312 0.77217129 -3.13883312 0.77217129 -7 1 C-7.66 2.65 -8.32 4.3 -9 6 C-9.598125 5.195625 -10.19625 4.39125 -10.8125 3.5625 C-13.19604535 0.77034688 -14.49759185 0.17098302 -18.09375 -0.23828125 C-24.26386005 -0.42859309 -28.68404699 0.87022175 -34.37109375 3.17578125 C-38.28106921 4.4016428 -41.04687275 3.89504768 -45 3 C-45.66 1.35 -46.32 -0.3 -47 -2 C-46.2575 -1.690625 -45.515 -1.38125 -44.75 -1.0625 C-40.36057914 0.8261024 -40.36057914 0.8261024 -35.81640625 0.2578125 C-35.07261719 -0.11601562 -34.32882813 -0.48984375 -33.5625 -0.875 C-23.69356925 -5.78372034 -9.19776701 -6.43843691 0 0 Z " fill="#161615" transform="translate(250,205)"/>
<path d="M0 0 C4.07036261 2.63376404 6.63645666 5.22759831 8 10 C7.01 10 6.02 10 5 10 C4.62875 9.278125 4.2575 8.55625 3.875 7.8125 C0.91446898 3.37170347 -3.80090763 1.11515202 -8.79296875 -0.625 C-12.1448958 -1.19453097 -15.48510513 -1.22512004 -18.875 -1.25 C-19.56980469 -1.270625 -20.26460938 -1.29125 -20.98046875 -1.3125 C-25.75285607 -1.34845019 -28.91395996 -0.43369156 -33 2 C-33 3.65 -33 5.3 -33 7 C-33.66 6.67 -34.32 6.34 -35 6 C-35 4.35 -35 2.7 -35 1 C-37.31 1.66 -39.62 2.32 -42 3 C-32.70967471 -7.42547757 -11.19788116 -6.78926653 0 0 Z " fill="#060503" transform="translate(412,205)"/>
<path d="M0 0 C1.32 0.33 2.64 0.66 4 1 C5.78117801 6.34661566 6.27243829 10.94500229 6.1953125 16.55859375 C6.1924826 17.34774673 6.18965271 18.13689972 6.18673706 18.94996643 C6.17563057 21.44597172 6.15054455 23.94160498 6.125 26.4375 C6.11495785 28.13996874 6.10583417 29.84244316 6.09765625 31.54492188 C6.0757226 35.69675576 6.04125977 39.84831502 6 44 C5.67 44 5.34 44 5 44 C4.67 51.26 4.34 58.52 4 66 C3.67 66 3.34 66 3 66 C3.00444122 65.2277005 3.00888245 64.455401 3.01345825 63.65969849 C3.05349004 56.39055363 3.08396143 49.12146202 3.10362434 41.85223579 C3.11407298 38.1148217 3.1282517 34.3774985 3.15087891 30.64013672 C3.17256904 27.035095 3.18456049 23.43014083 3.18975449 19.82503891 C3.19345716 18.44788102 3.20068734 17.07072806 3.21146011 15.69360733 C3.22592335 13.76860455 3.22681648 11.84351413 3.22705078 9.91845703 C3.231492 8.82147491 3.23593323 7.7244928 3.24050903 6.5942688 C3.26353228 3.83765688 3.26353228 3.83765688 1 2 C0.67 1.34 0.34 0.68 0 0 Z " fill="#0B0A0F" transform="translate(253,210)"/>
<path d="M0 0 C0.33 0 0.66 0 1 0 C1.00586624 0.73027405 1.01173248 1.4605481 1.01777649 2.21295166 C1.0757085 9.09906273 1.14778811 15.98489646 1.23571491 22.87068558 C1.28042028 26.41067473 1.31967563 29.95054876 1.34643555 33.49072266 C1.37744839 37.56181932 1.43223715 41.63229543 1.48828125 45.703125 C1.49467117 46.97303284 1.5010611 48.24294067 1.50764465 49.55133057 C1.53733589 51.32271393 1.53733589 51.32271393 1.56762695 53.12988281 C1.57873001 54.16912903 1.58983307 55.20837524 1.60127258 56.27911377 C2.05785777 59.39481712 2.81051601 60.76417954 5 63 C6.485 63.495 6.485 63.495 8 64 C7.67 64.99 7.34 65.98 7 67 C0.4 66.67 -6.2 66.34 -13 66 C-13 65.67 -13 65.34 -13 65 C-7.72 65 -2.44 65 3 65 C2.01 63.35 1.02 61.7 0 60 C-0.36076355 57.12089539 -0.36076355 57.12089539 -0.34057617 53.92456055 C-0.34034958 52.72369308 -0.34012299 51.52282562 -0.33988953 50.28556824 C-0.32440567 48.99894791 -0.30892181 47.71232758 -0.29296875 46.38671875 C-0.28736869 45.04865495 -0.28310053 43.71058498 -0.28010559 42.37251282 C-0.26868892 38.86248588 -0.23924987 35.35283544 -0.20599365 31.84295654 C-0.17522371 28.25668428 -0.16158553 24.67035078 -0.14648438 21.08398438 C-0.11437655 14.0558356 -0.06321917 7.02793591 0 0 Z " fill="#121110" transform="translate(213,216)"/>
<path d="M0 0 C0.70125 0.825 1.4025 1.65 2.125 2.5 C4.76376139 5.2056249 4.76376139 5.2056249 8 5.625 C11.92660732 4.80695681 13.44578533 3.00495843 16 0 C15.125 3.875 15.125 3.875 14 5 C16.94091587 4.81584568 16.94091587 4.81584568 20 4 C21.43637698 2.04836882 21.43637698 2.04836882 22 0 C26 0 26 0 29 2 C27.3970947 2.81498562 25.79262722 3.62689927 24.1875 4.4375 C23.29417969 4.88996094 22.40085937 5.34242188 21.48046875 5.80859375 C14.45586245 9.18261725 4.71622798 9.11888443 -2.83203125 7.328125 C-5 6.5 -5 6.5 -8 5 C-4.30581799 3.768606 -1.7943739 4.35567236 2 5 C1.34 4.34 0.68 3.68 0 3 C0 2.01 0 1.02 0 0 Z " fill="#0E0D0B" transform="translate(103,275)"/>
<path d="M0 0 C0.33 1.32 0.66 2.64 1 4 C0.01 4.33 -0.98 4.66 -2 5 C-2.00808685 5.67794113 -2.01617371 6.35588226 -2.02450562 7.05436707 C-2.11056962 14.11106104 -2.21007448 21.16747472 -2.31738281 28.22387695 C-2.35566345 30.85729261 -2.39051789 33.49076038 -2.421875 36.12426758 C-2.4675447 39.90985746 -2.52553726 43.69508878 -2.5859375 47.48046875 C-2.59748871 48.65772018 -2.60903992 49.83497162 -2.62094116 51.04789734 C-2.64081085 52.14866104 -2.66068054 53.24942474 -2.68115234 54.38354492 C-2.69447601 55.34951096 -2.70779968 56.31547699 -2.7215271 57.31071472 C-3.01915164 60.18495234 -3.80576346 62.38143698 -5 65 C-4.01 65.66 -3.02 66.32 -2 67 C-4.97 66.67 -7.94 66.34 -11 66 C-10.02369629 65.09386963 -9.04739258 64.18773926 -8.04150391 63.25415039 C-3.77735959 58.24672996 -4.21209493 53.25305145 -4.3359375 46.93359375 C-4.33171783 45.78133804 -4.32749817 44.62908234 -4.32315063 43.44190979 C-4.31230857 39.77311242 -4.34032896 36.10612896 -4.375 32.4375 C-4.39906418 28.7655472 -4.41422793 25.09440589 -4.40542603 21.42237854 C-4.40085779 19.14184377 -4.41549119 16.86116841 -4.45175171 14.58091736 C-4.44965317 8.40070002 -4.13405265 4.7181345 0 0 Z " fill="#11110F" transform="translate(193,216)"/>
<path d="M0 0 C0 0.33 0 0.66 0 1 C-1.98 1.33 -3.96 1.66 -6 2 C-5.01 3.485 -5.01 3.485 -4 5 C-4.56460938 4.83886719 -5.12921875 4.67773438 -5.7109375 4.51171875 C-13.1689101 2.84449279 -20.68892613 4.25778665 -28 6 C-28.66 4.68 -29.32 3.36 -30 2 C-29.01 2.33 -28.02 2.66 -27 3 C-25.03712808 2.44669807 -25.03712808 2.44669807 -22.875 1.5625 C-15.43288649 -0.87390621 -7.73050152 -0.24213868 0 0 Z " fill="#100F0E" transform="translate(200,201)"/>
<path d="M0 0 C0.433125 0.474375 0.86625 0.94875 1.3125 1.4375 C3.02309613 3.23686957 3.02309613 3.23686957 6 4 C5.67 4.99 5.34 5.98 5 7 C-6.88 7 -18.76 7 -31 7 C-31.33 6.01 -31.66 5.02 -32 4 C-30.35 3.34 -28.7 2.68 -27 2 C-27 2.66 -27 3.32 -27 4 C-18.09 4 -9.18 4 0 4 C0 2.68 0 1.36 0 0 Z " fill="#161415" transform="translate(172,276)"/>
<path d="M0 0 C-2.60906751 3.30973581 -5.27598736 3.74774831 -9.3125 4.5625 C-12.71525716 5.26202151 -15.90470609 5.96565668 -19.17578125 7.14453125 C-22.97258196 8.29459951 -25.33890711 7.31799344 -29 6 C-29.33 4.68 -29.66 3.36 -30 2 C-29.2575 2.309375 -28.515 2.61875 -27.75 2.9375 C-23.36057914 4.8261024 -23.36057914 4.8261024 -18.81640625 4.2578125 C-18.07261719 3.88398438 -17.32882813 3.51015625 -16.5625 3.125 C-10.8232544 0.40985934 -6.37881487 -0.1250748 0 0 Z " fill="#0B0B0A" transform="translate(233,201)"/>
<path d="M0 0 C0.66 0.33 1.32 0.66 2 1 C3.08265811 6.08914142 2.97385543 10.772704 2.5625 15.9375 C2.51029297 16.62134766 2.45808594 17.30519531 2.40429688 18.00976562 C2.27630102 19.67371169 2.13912281 21.3369473 2 23 C0 21 0 21 -0.1953125 18.1796875 C-0.17210937 17.08914062 -0.14890625 15.99859375 -0.125 14.875 C-0.10695313 13.77929688 -0.08890625 12.68359375 -0.0703125 11.5546875 C-0.04710937 10.71164063 -0.02390625 9.86859375 0 9 C-0.33 10.32 -0.66 11.64 -1 13 C-3.50357861 12.1654738 -5.66785852 11.20628008 -8 10 C-7.236875 9.46375 -6.47375 8.9275 -5.6875 8.375 C-2.77135526 5.79794186 -1.5294378 3.54185596 0 0 Z " fill="#1D1D1C" transform="translate(419,215)"/>
<path d="M0 0 C-0.66 0 -1.32 0 -2 0 C-2 0.66 -2 1.32 -2 2 C-3.03125 1.95875 -4.0625 1.9175 -5.125 1.875 C-11.48160948 1.85205195 -17.7369103 3.01479488 -24 4 C-23.67257812 4.91007813 -23.34515625 5.82015625 -23.0078125 6.7578125 C-21.89811568 10.32776738 -21.85135107 13.28377679 -22 17 C-22.33 17 -22.66 17 -23 17 C-23.12955078 15.95199219 -23.12955078 15.95199219 -23.26171875 14.8828125 C-23.68204824 12.16031137 -24.13743453 9.61803791 -25 7 C-27.45748398 5.24431996 -27.45748398 5.24431996 -30 5 C-30 4.34 -30 3.68 -30 3 C-25.75202223 2.29959257 -21.50138178 1.61691386 -17.25 0.9375 C-15.44015625 0.63875977 -15.44015625 0.63875977 -13.59375 0.33398438 C-12.43359375 0.15029297 -11.2734375 -0.03339844 -10.078125 -0.22265625 C-8.47565918 -0.48187866 -8.47565918 -0.48187866 -6.84082031 -0.74633789 C-4.20016422 -0.98212697 -2.48550551 -0.84161104 0 0 Z " fill="#0F0F0F" transform="translate(283,203)"/>
<path d="M0 0 C2 3.75 2 3.75 2 6 C2.66 6.33 3.32 6.66 4 7 C3.34 7 2.68 7 2 7 C2.03552979 7.74685059 2.07105957 8.49370117 2.10766602 9.26318359 C2.26487305 12.63355535 2.41379014 16.0042431 2.5625 19.375 C2.61857422 20.550625 2.67464844 21.72625 2.73242188 22.9375 C2.78076172 24.05898437 2.82910156 25.18046875 2.87890625 26.3359375 C2.9260376 27.37282715 2.97316895 28.4097168 3.02172852 29.47802734 C3 32 3 32 2 34 C2.00864083 36.27685912 2.13048722 38.53546303 2.2578125 40.80859375 C1.93623337 43.54201636 0.97522442 44.18564036 -1 46 C-0.9285376 45.26241455 -0.8570752 44.5248291 -0.78344727 43.76489258 C0.04040794 34.38445562 0.11700814 25.0927254 0.0625 15.6875 C0.05746888 14.15690253 0.05290886 12.62630343 0.04882812 11.09570312 C0.03796424 7.39710089 0.02079101 3.69856136 0 0 Z " fill="#151514" transform="translate(122,222)"/>
<path d="M0 0 C1.32 0.33 2.64 0.66 4 1 C5.78117801 6.34661566 6.27243829 10.94500229 6.1953125 16.55859375 C6.1924826 17.34774673 6.18965271 18.13689972 6.18673706 18.94996643 C6.17563057 21.44597172 6.15054455 23.94160498 6.125 26.4375 C6.11495785 28.13996874 6.10583417 29.84244316 6.09765625 31.54492188 C6.0757226 35.69675576 6.04125977 39.84831502 6 44 C5.67 44 5.34 44 5 44 C4.97494385 43.04109863 4.9498877 42.08219727 4.92407227 41.09423828 C4.8300138 37.54201523 4.72978942 33.98998844 4.62768555 30.43798828 C4.58433074 28.89962347 4.54265605 27.36121037 4.50268555 25.82275391 C4.44499602 23.6134586 4.38129821 21.40440652 4.31640625 19.1953125 C4.29969376 18.50567413 4.28298126 17.81603577 4.26576233 17.10549927 C4.19193005 13.42885736 4.19193005 13.42885736 3 10 C3.020625 9.01 3.04125 8.02 3.0625 7 C3.34381131 3.88232786 3.34381131 3.88232786 1 2 C0.67 1.34 0.34 0.68 0 0 Z " fill="#000000" transform="translate(253,210)"/>
<path d="M0 0 C0.66 0.33 1.32 0.66 2 1 C-0.32036374 3.32036374 -1.96601713 3.78904926 -5.0625 4.8125 C-10.40404114 6.67992533 -15.16157176 9.08499632 -20 12 C-20 11.34 -20 10.68 -20 10 C-22.31 10.33 -24.62 10.66 -27 11 C-24.56305044 9.37536696 -22.92287201 8.51231669 -20.234375 7.59765625 C-19.50863281 7.34693359 -18.78289062 7.09621094 -18.03515625 6.83789062 C-17.28105469 6.58201172 -16.52695312 6.32613281 -15.75 6.0625 C-11.45003004 4.59540728 -7.21521674 3.13136431 -3.078125 1.24609375 C-2.06234375 0.83488281 -1.0465625 0.42367187 0 0 Z " fill="#0B0B08" transform="translate(409,226)"/>
<path d="M0 0 C1.16143704 3.48431113 0.77996379 4.97814337 0.125 8.5625 C-1.65427524 19.94745714 -1.68090003 31.49942936 -2 43 C-2.33 43 -2.66 43 -3 43 C-4.26229753 37.15936938 -4.14744016 31.38040249 -4.125 25.4375 C-4.12886719 24.40947266 -4.13273437 23.38144531 -4.13671875 22.32226562 C-4.13478516 20.83049805 -4.13478516 20.83049805 -4.1328125 19.30859375 C-4.13168457 18.40939209 -4.13055664 17.51019043 -4.12939453 16.58374023 C-3.91102885 12.2234307 -2.84906317 8.29944487 -1.4375 4.1875 C-1.16808594 3.39730469 -0.89867188 2.60710937 -0.62109375 1.79296875 C-0.41613281 1.20128906 -0.21117188 0.60960937 0 0 Z " fill="#0C0C0A" transform="translate(101,212)"/>
<path d="M0 0 C0.99 0 1.98 0 3 0 C3 0.66 3 1.32 3 2 C3.66 2 4.32 2 5 2 C8.14217141 7.12117396 8.27444295 10.63023098 7.6875 16.375 C7.62626953 17.11105469 7.56503906 17.84710938 7.50195312 18.60546875 C7.35004355 20.405013 7.17716201 22.20276611 7 24 C6.67 23.34 6.34 22.68 6 22 C5.34 22 4.68 22 4 22 C3.375 18.625 3.375 18.625 3 15 C3.66 14.34 4.32 13.68 5 13 C5.58369443 9.58461856 5.58369443 9.58461856 5 6 C2.60140956 3.66369252 2.60140956 3.66369252 0 2 C0 1.34 0 0.68 0 0 Z " fill="#0B0B0A" transform="translate(140,206)"/>
<path d="M0 0 C1.36860289 2.73720577 0.63130187 4.10864893 -0.0625 7.0625 C-1.15459443 12.6103397 -0.63903825 16.65990764 1 22 C1.33930413 23.33182641 1.67440365 24.66475624 2 26 C1.01 26 0.02 26 -1 26 C-1.33 25.34 -1.66 24.68 -2 24 C-2.66 23.67 -3.32 23.34 -4 23 C-3.83242188 22.29746094 -3.66484375 21.59492188 -3.4921875 20.87109375 C-2.97216968 17.83765648 -3.00641668 15.13380803 -3.125 12.0625 C-3.18627484 7.09311031 -2.74748589 4.12122883 0 0 Z " fill="#11110F" transform="translate(381,245)"/>
<path d="M0 0 C3.465 1.98 3.465 1.98 7 4 C6.67 4.99 6.34 5.98 6 7 C-4.89 6.67 -15.78 6.34 -27 6 C-27 5.67 -27 5.34 -27 5 C-17.43 4.67 -7.86 4.34 2 4 C1.34 2.68 0.68 1.36 0 0 Z " fill="#141312" transform="translate(285,276)"/>
<path d="M0 0 C0.33 0.99 0.66 1.98 1 3 C0.34 3.66 -0.32 4.32 -1 5 C1.94091587 4.81584568 1.94091587 4.81584568 5 4 C6.43637698 2.04836882 6.43637698 2.04836882 7 0 C11 0 11 0 14 2 C7.75838097 5.58125682 3.24579719 7.67090715 -4 7 C-2.79618552 4.50638429 -1.54571278 2.31856917 0 0 Z " fill="#100F0F" transform="translate(118,275)"/>
<path d="M0 0 C3.3 0.33 6.6 0.66 10 1 C10.66 2.98 11.32 4.96 12 7 C14.31 7.33 16.62 7.66 19 8 C19 8.33 19 8.66 19 9 C16.36 9 13.72 9 11 9 C10.34 7.35 9.68 5.7 9 4 C8.34 4.66 7.68 5.32 7 6 C5.01178687 6.39764263 3.01055661 6.73775349 1 7 C1.99 5.68 2.98 4.36 4 3 C2.68 2.34 1.36 1.68 0 1 C0 0.67 0 0.34 0 0 Z " fill="#0D0C0C" transform="translate(386,274)"/>
<path d="M0 0 C1.98 0.99 3.96 1.98 6 3 C5.67 3.99 5.34 4.98 5 6 C-8.86 5.505 -8.86 5.505 -23 5 C-23 4.67 -23 4.34 -23 4 C-15.08 4 -7.16 4 1 4 C0.67 2.68 0.34 1.36 0 0 Z " fill="#131112" transform="translate(357,277)"/>
<path d="M0 0 C0.33 0.66 0.66 1.32 1 2 C0.67 2.99 0.34 3.98 0 5 C1.32 5.33 2.64 5.66 4 6 C2.125 10.875 2.125 10.875 1 12 C1.28604898 13.67542976 1.61781233 15.34385343 2 17 C-1.47369774 14.05999706 -1.6449471 11.60019088 -2.015625 7.23046875 C-1.99619119 4.45629216 -1.32952915 2.42443551 0 0 Z " fill="#171715" transform="translate(361,216)"/>
<path d="M0 0 C-1.55500981 3.81684226 -4.03595495 6.19195732 -7 9 C-7.33 7.02 -7.66 5.04 -8 3 C-8.99 2.67 -9.98 2.34 -11 2 C-3.375 0 -3.375 0 0 0 Z " fill="#191918" transform="translate(389,236)"/>
<path d="M0 0 C-3.53411321 2.12046792 -6.94393835 2.53199289 -11 3 C-11 5.62113708 -10.68707555 7.50935112 -10 10 C-11.1725131 9.04882866 -12.33787015 8.08882991 -13.5 7.125 C-14.1496875 6.59132812 -14.799375 6.05765625 -15.46875 5.5078125 C-15.9740625 5.01023438 -16.479375 4.51265625 -17 4 C-17 3.34 -17 2.68 -17 2 C-15.10507994 1.66151348 -13.20901534 1.32943089 -11.3125 1 C-9.72888672 0.7215625 -9.72888672 0.7215625 -8.11328125 0.4375 C-5.35095938 0.04931926 -2.78257957 -0.08259976 0 0 Z " fill="#0C0C0B" transform="translate(341,204)"/>
<path d="M0 0 C18.04100228 -0.738041 18.04100228 -0.738041 25 4 C22.46578263 5.26710868 20.80561762 5.28056176 18 5 C17.34 4.01 16.68 3.02 16 2 C13.22737745 1.61605333 10.65676472 1.39657752 7.875 1.3125 C7.12089844 1.27833984 6.36679687 1.24417969 5.58984375 1.20898438 C3.72708799 1.12645722 1.86356674 1.06155289 0 1 C0 0.67 0 0.34 0 0 Z " fill="#12110F" transform="translate(296,201)"/>
<path d="M0 0 C0.66 0.33 1.32 0.66 2 1 C3.08265811 6.08914142 2.97385543 10.772704 2.5625 15.9375 C2.48418945 16.96327148 2.48418945 16.96327148 2.40429688 18.00976562 C2.27630102 19.67371169 2.13912281 21.3369473 2 23 C0 21 0 21 -0.1953125 17.3046875 C-0.182009 15.82799892 -0.15814835 14.35137642 -0.125 12.875 C-0.11146484 11.74384766 -0.11146484 11.74384766 -0.09765625 10.58984375 C-0.0740687 8.72642746 -0.03819719 6.86317407 0 5 C-0.99 5.495 -0.99 5.495 -2 6 C-1.34 4.02 -0.68 2.04 0 0 Z " fill="#121211" transform="translate(419,215)"/>
<path d="M0 0 C5.28 0 10.56 0 16 0 C11.47671902 3.39246073 10.36271941 3.09750399 5 3 C4.01 3.66 3.02 4.32 2 5 C2.33 3.68 2.66 2.36 3 1 C2.01 0.67 1.02 0.34 0 0 Z " fill="#0B0A09" transform="translate(103,201)"/>
<path d="M0 0 C0.33 0 0.66 0 1 0 C1.53010201 2.60259124 2.04937795 5.206557 2.5625 7.8125 C2.78969727 8.91948242 2.78969727 8.91948242 3.02148438 10.04882812 C4.11328125 15.66015625 4.11328125 15.66015625 3 19 C2.67 17.35 2.34 15.7 2 14 C1.01 14 0.02 14 -1 14 C-0.67 9.38 -0.34 4.76 0 0 Z " fill="#111110" transform="translate(99,256)"/>
<path d="M0 0 C0 1.33333333 0 2.66666667 0 4 C0.66 4.33 1.32 4.66 2 5 C0.35 5.66 -1.3 6.32 -3 7 C-3 9.97 -3 12.94 -3 16 C-5.27147766 11.45704467 -5.27147766 11.45704467 -4.3125 7.4375 C-4.14363281 6.67308594 -3.97476562 5.90867188 -3.80078125 5.12109375 C-2.91627805 2.77823893 -1.87971937 1.62080486 0 0 Z " fill="#161613" transform="translate(335,171)"/>
<path d="M0 0 C1.175625 1.2065625 1.175625 1.2065625 2.375 2.4375 C4.71982856 4.98690417 4.71982856 4.98690417 7 6 C6.67 6.99 6.34 7.98 6 9 C3.69 9 1.38 9 -1 9 C-0.01 8.01 0.98 7.02 2 6 C1.01 5.01 0.02 4.02 -1 3 C-0.67 2.01 -0.34 1.02 0 0 Z " fill="#0D0C0A" transform="translate(421,271)"/>
<path d="M0 0 C0.66 0.99 1.32 1.98 2 3 C1.71244326 4.34394941 1.36760578 5.67570589 1 7 C0.93168013 9.4157906 0.91512358 11.83334713 0.9375 14.25 C0.94652344 15.51328125 0.95554687 16.7765625 0.96484375 18.078125 C0.97644531 19.04234375 0.98804687 20.0065625 1 21 C0.34 21.33 -0.32 21.66 -1 22 C-1.02700675 19.08327116 -1.04684237 16.16679323 -1.0625 13.25 C-1.07087891 12.425 -1.07925781 11.6 -1.08789062 10.75 C-1.09111328 9.95078125 -1.09433594 9.1515625 -1.09765625 8.328125 C-1.10289307 7.5949707 -1.10812988 6.86181641 -1.11352539 6.10644531 C-0.9975109 3.9538151 -0.59073271 2.0685865 0 0 Z " fill="#131312" transform="translate(75,229)"/>
<path d="M0 0 C3.33523252 1.38009621 5.18607951 2.84950652 7 6 C6.67 6.99 6.34 7.98 6 9 C3.72494996 6.83328568 1.76424908 4.60436769 0 2 C0 1.34 0 0.68 0 0 Z " fill="#0B0B08" transform="translate(413,207)"/>
<path d="M0 0 C0 0.66 0 1.32 0 2 C-2.97 2 -5.94 2 -9 2 C-9 1.01 -9 0.02 -9 -1 C-5.79937313 -2.60031344 -3.27728194 -1.03173691 0 0 Z " fill="#0C0A0B" transform="translate(305,281)"/>
<path d="M0 0 C0.33 0.99 0.66 1.98 1 3 C3.00016466 4.20882096 3.00016466 4.20882096 5 5 C2.36 5 -0.28 5 -3 5 C-3.33 4.01 -3.66 3.02 -4 2 C-2.68 1.34 -1.36 0.68 0 0 Z " fill="#090909" transform="translate(144,278)"/>
<path d="M0 0 C0.33 0.66 0.66 1.32 1 2 C3.01669827 3.13350534 3.01669827 3.13350534 5 4 C5 4.33 5 4.66 5 5 C2.36 5 -0.28 5 -3 5 C-3.33 4.01 -3.66 3.02 -4 2 C-2.68 1.34 -1.36 0.68 0 0 Z " fill="#0F0F0F" transform="translate(229,278)"/>
<path d="M0 0 C0.66 0.33 1.32 0.66 2 1 C2.99 0.67 3.98 0.34 5 0 C5.99 0.66 6.98 1.32 8 2 C4.77208445 4.1519437 3.71599191 4.20086443 0 4 C-0.33 3.34 -0.66 2.68 -1 2 C-0.67 1.34 -0.34 0.68 0 0 Z " fill="#181718" transform="translate(124,275)"/>
<path d="M0 0 C0.99 0 1.98 0 3 0 C3.66 1.98 4.32 3.96 5 6 C4.01 6 3.02 6 2 6 C1.67 5.34 1.34 4.68 1 4 C0.34 3.67 -0.32 3.34 -1 3 C-0.67 2.01 -0.34 1.02 0 0 Z " fill="#171716" transform="translate(378,265)"/>
<path d="M0 0 C0.66 0.66 1.32 1.32 2 2 C1.34 3.98 0.68 5.96 0 8 C-0.66 7.67 -1.32 7.34 -2 7 C-2.125 4.625 -2.125 4.625 -2 2 C-1.34 1.34 -0.68 0.68 0 0 Z " fill="#171717" transform="translate(147,226)"/>
<path d="M0 0 C0.99 0 1.98 0 3 0 C2.01 2.97 1.02 5.94 0 9 C-0.33 9 -0.66 9 -1 9 C-0.67 6.03 -0.34 3.06 0 0 Z " fill="#151514" transform="translate(103,202)"/>
<path d="M0 0 C0.99 0.33 1.98 0.66 3 1 C5.63804589 0.60602665 5.63804589 0.60602665 8 0 C7.67 0.99 7.34 1.98 7 3 C5.35 3.33 3.7 3.66 2 4 C1.34 2.68 0.68 1.36 0 0 Z " fill="#090909" transform="translate(170,203)"/>
<path d="M0 0 C0.33 0 0.66 0 1 0 C1 3.63 1 7.26 1 11 C0.67 11 0.34 11 0 11 C0 7.37 0 3.74 0 0 Z " fill="#000000" transform="translate(422,227)"/>
<path d="M0 0 C0.33 0 0.66 0 1 0 C1 3.63 1 7.26 1 11 C0.67 11 0.34 11 0 11 C0 7.37 0 3.74 0 0 Z " fill="#000000" transform="translate(357,220)"/>
<path d="M0 0 C0.33 0 0.66 0 1 0 C1 2.31 1 4.62 1 7 C0.67 7 0.34 7 0 7 C0 4.69 0 2.38 0 0 Z " fill="#000000" transform="translate(258,262)"/>
<path d="" fill="#000000" transform="translate(0,0)"/>
<path d="" fill="#000000" transform="translate(0,0)"/>
<path d="" fill="#000000" transform="translate(0,0)"/>
<path d="M0 0 C3 1 3 1 3 1 Z " fill="#000000" transform="translate(371,238)"/>
<path d="" fill="#000000" transform="translate(0,0)"/>
<path d="" fill="#000000" transform="translate(0,0)"/>
<path d="" fill="#000000" transform="translate(0,0)"/>
<path d="" fill="#000000" transform="translate(0,0)"/>
</svg>
